<svg width="1265" height="758" viewBox="0 0 1265 758" fill="none" xmlns="http://www.w3.org/2000/svg">
<circle cx="531" cy="144" r="5" fill="#F775C1" fill-opacity="0.44"/>
<rect x="461.211" y="104.849" width="37.478" height="37.3018" rx="8" transform="rotate(11 461.211 104.849)" fill="#F775C1" fill-opacity="0.44"/>
<circle cx="1011" cy="517" r="5" fill="#F775C1" fill-opacity="0.44"/>
<rect x="957.118" y="479" width="37.478" height="37.3018" rx="8" transform="rotate(11 957.118 479)" fill="#F775C1" fill-opacity="0.44"/>
<path opacity="0.110328" fill-rule="evenodd" clip-rule="evenodd" d="M251.318 714.429C353.557 708.679 440.478 637.037 462.765 537.444C474.547 484.793 467.754 425.659 413.974 373.112C317.836 279.179 226.703 341.334 180.078 387.954C157.516 410.47 131.907 429.732 103.991 445.182C53.7838 473.034 -13.4045 532.331 54.4937 631.703C103.706 703.728 183.217 718.259 251.318 714.429Z" fill="#17162A"/>
<circle cx="226" cy="538" r="5" fill="#F775C1" fill-opacity="0.44"/>
<rect x="163.308" y="460.73" width="48.5844" height="48.7831" rx="8" transform="rotate(11 163.308 460.73)" fill="#F775C1" fill-opacity="0.44"/>
<path opacity="0.110328" fill-rule="evenodd" clip-rule="evenodd" d="M1018.32 437.429C1120.56 431.679 1207.48 360.037 1229.76 260.444C1241.55 207.793 1234.75 148.659 1180.97 96.112C1084.84 2.17932 993.703 64.3343 947.077 110.954C924.516 133.47 898.907 152.732 870.991 168.182C820.784 196.034 753.595 255.331 821.494 354.703C870.706 426.728 950.217 441.259 1018.32 437.429Z" fill="#17162A"/>
</svg>
