<svg width="189" height="28" viewBox="0 0 189 28" fill="none" xmlns="http://www.w3.org/2000/svg">
<path d="M0.878906 23.0469L2.8125 20.2695C4.24219 21.957 5.88281 22.8008 7.73438 22.8008C10.2656 22.8008 11.5195 21.5703 11.4961 19.1094C11.4961 17.8672 10.6172 16.8828 8.85938 16.1562C6 14.9609 4.40625 14.2461 4.07812 14.0117C2.34375 12.8164 1.48828 10.9766 1.51172 8.49219C1.53516 6.52344 2.32031 4.91797 3.86719 3.67578C5.17969 2.62109 6.60938 2.09375 8.15625 2.09375C10.6406 2.09375 12.9023 2.94922 14.9414 4.66016L13.5 7.68359C11.8594 6.13672 10.3125 5.36328 8.85938 5.36328C7.875 5.36328 7.14844 5.5625 6.67969 5.96094C6.09375 6.42969 5.8125 7.28516 5.83594 8.52734C5.83594 9.62891 6.67969 10.5195 8.36719 11.1992C10.9922 12.2539 12.5625 12.9805 13.0781 13.3789C14.7891 14.6445 15.6328 16.5312 15.6094 19.0391C15.6094 21.5 14.8125 23.3867 13.2188 24.6992C11.8359 25.8008 10.1016 26.3516 8.01562 26.3516C4.82812 26.3516 2.44922 25.25 0.878906 23.0469ZM17.7188 17.2812C17.7188 14.0703 18.6562 11.5859 20.5312 9.82812C22.1016 8.30469 24 7.56641 26.2266 7.61328C27.5859 7.61328 29.4023 8.375 31.6758 9.89844L30.4805 12.3945C28.9102 11.1289 27.375 10.4961 25.875 10.4961C24.5859 10.4961 23.5781 11.2578 22.8516 12.7812C22.2188 14.0703 21.9141 15.6055 21.9375 17.3867C21.9375 19.2383 22.3242 20.7383 23.0977 21.8867C23.8711 23.0117 24.8906 23.5742 26.1562 23.5742C27.5625 23.5742 29.1211 22.8125 30.832 21.2891L32.4492 23.3984C31.5117 24.4766 30.5625 25.25 29.6016 25.7188C28.6406 26.1875 27.4922 26.4219 26.1562 26.4219C23.0156 26.4219 20.707 25.1914 19.2305 22.7305C18.2227 21.0664 17.7188 19.25 17.7188 17.2812ZM45.8438 14.2578C45.8438 12.0078 45.1758 10.8828 43.8398 10.8828C42.7852 10.8828 41.7773 11.4453 40.8164 12.5703C40.043 13.4844 39.6562 14.1289 39.6562 14.5039V26H35.8242V0.933594H39.6562V11.375C40.9922 8.84375 42.457 7.58984 44.0508 7.61328C45.4336 7.61328 46.7109 8.16406 47.8828 9.26562C49.1016 10.4844 49.7109 11.9961 49.7109 13.8008V26H45.8438V14.2578ZM53.3672 16.9297C53.3672 13.8594 54.3398 11.457 56.2852 9.72266C57.9023 8.29297 59.7773 7.57812 61.9102 7.57812C64.0195 7.57812 65.8477 8.29297 67.3945 9.72266C69.2695 11.4336 70.207 13.8359 70.207 16.9297C70.207 19.0391 69.668 20.9727 68.5898 22.7305C67.0664 25.168 64.8281 26.3867 61.875 26.3867C58.6406 26.3867 56.2852 25.1562 54.8086 22.6953C53.8477 21.0547 53.3672 19.1328 53.3672 16.9297ZM57.5508 17.1406C57.5508 18.875 57.8906 20.3398 58.5703 21.5352C59.3438 22.8945 60.3984 23.5742 61.7344 23.5742C63.0938 23.5742 64.1719 22.8828 64.9688 21.5C65.6953 20.2812 66.0469 18.7695 66.0234 16.9648C66.0234 15.207 65.707 13.7188 65.0742 12.5C64.3242 11.1172 63.3164 10.4258 62.0508 10.4258C60.5977 10.4258 59.4492 11.1289 58.6055 12.5352C57.9023 13.7773 57.5508 15.3125 57.5508 17.1406ZM73.9336 0.863281H77.7305V26H73.9336V0.863281ZM82.3359 0.863281H86.1328V26H82.3359V0.863281ZM89.7188 23.2227C89.7188 22.3555 90.0234 21.6172 90.6328 21.0078C91.2656 20.3984 92.0039 20.0938 92.8477 20.0938C93.6914 20.0938 94.418 20.3984 95.0273 21.0078C95.6602 21.6172 95.9766 22.3555 95.9766 23.2227C95.9766 24.0898 95.6719 24.8281 95.0625 25.4375C94.4531 26.0234 93.7148 26.3164 92.8477 26.3164C92.0039 26.3164 91.2656 26.0234 90.6328 25.4375C90.0234 24.8281 89.7188 24.0898 89.7188 23.2227ZM116.227 26.2109L111.832 11.7266L107.191 26.2109H104.027L97.5586 3.60547L102.34 2.65625L106.383 18.5117L110.355 3.11328H114.047L118.02 18.4766L121.746 2.62109L125.367 3.64062L119.039 26.2109H116.227ZM126.949 16.9297C126.949 13.8594 127.922 11.457 129.867 9.72266C131.484 8.29297 133.359 7.57812 135.492 7.57812C137.602 7.57812 139.43 8.29297 140.977 9.72266C142.852 11.4336 143.789 13.8359 143.789 16.9297C143.789 19.0391 143.25 20.9727 142.172 22.7305C140.648 25.168 138.41 26.3867 135.457 26.3867C132.223 26.3867 129.867 25.1562 128.391 22.6953C127.43 21.0547 126.949 19.1328 126.949 16.9297ZM131.133 17.1406C131.133 18.875 131.473 20.3398 132.152 21.5352C132.926 22.8945 133.98 23.5742 135.316 23.5742C136.676 23.5742 137.754 22.8828 138.551 21.5C139.277 20.2812 139.629 18.7695 139.605 16.9648C139.605 15.207 139.289 13.7188 138.656 12.5C137.906 11.1172 136.898 10.4258 135.633 10.4258C134.18 10.4258 133.031 11.1289 132.188 12.5352C131.484 13.7773 131.133 15.3125 131.133 17.1406ZM154.195 12.1836C153.492 12.207 152.824 12.582 152.191 13.3086C151.605 13.9414 151.312 14.4336 151.312 14.7852V26H147.48V8.14062H151.312V11.0586C151.617 10.3086 152.051 9.60547 152.613 8.94922C153.27 8.17578 153.867 7.78906 154.406 7.78906C155.32 7.78906 156.07 7.90625 156.656 8.14062L156.199 12.6055C155.801 12.3711 155.496 12.2305 155.285 12.1836C155.168 12.1602 154.805 12.1602 154.195 12.1836ZM164.566 18.0195L163.477 19.6016V26.0352H159.645V0.898438H163.477V15.5938L169.875 6.69922L173.285 9.05469L166.641 16.0859L174.445 24.875L171 27.125L164.566 18.0195ZM176.133 23.6094L178.137 20.9375C179.402 22.625 180.809 23.457 182.355 23.4336C183.129 23.4336 183.75 23.2227 184.219 22.8008C184.688 22.3555 184.922 21.8047 184.922 21.1484C184.922 19.9531 183.551 18.957 180.809 18.1602C179.449 17.7852 178.453 17.293 177.82 16.6836C177 15.8867 176.59 14.8086 176.59 13.4492C176.59 11.5039 177.234 9.99219 178.523 8.91406C179.602 7.97656 180.926 7.50781 182.496 7.50781H182.566C184.184 7.50781 186.012 8.15234 188.051 9.44141L186.645 12.1133C185.262 11.1289 183.996 10.6367 182.848 10.6367C182.074 10.6367 181.477 10.8477 181.055 11.2695C180.633 11.668 180.422 12.125 180.422 12.6406C180.422 13.2969 180.68 13.7305 181.195 13.9414C182.039 14.2695 182.859 14.5625 183.656 14.8203C187.102 15.8516 188.836 17.5977 188.859 20.0586C188.859 22.1445 188.168 23.7734 186.785 24.9453C185.566 25.9766 184.043 26.4922 182.215 26.4922C179.613 26.4922 177.586 25.5312 176.133 23.6094Z" fill="#574B90"/>
</svg>
